<svg xmlns="http://www.w3.org/2000/svg" width="64" height="64" viewBox="0 0 64 64"><rect width="64" height="64" rx="14" fill="#F06A6A"/><g transform="translate(14,14) scale(1.5)" fill="#FFFFFF"><path d="M18.78 12.653c-2.882 0-5.22 2.336-5.22 5.22s2.338 5.22 5.22 5.22 5.22-2.34 5.22-5.22-2.336-5.22-5.22-5.22zm-13.56 0c-2.88 0-5.22 2.337-5.22 5.22s2.338 5.22 5.22 5.22 5.22-2.338 5.22-5.22-2.336-5.22-5.22-5.22zm12-6.525c0 2.883-2.337 5.22-5.22 5.22-2.882 0-5.22-2.337-5.22-5.22 0-2.88 2.338-5.22 5.22-5.22 2.883 0 5.22 2.34 5.22 5.22z"/></g></svg>